<?xml version="1.0" encoding="UTF-8"?>
<!DOCTYPE svg  PUBLIC '-//W3C//DTD SVG 1.0//EN'  'http://www.w3.org/TR/2001/REC-SVG-20010904/DTD/svg10.dtd'>
<svg width="20.04mm" height="20.04mm" clip-rule="evenodd" fill-rule="evenodd" image-rendering="optimizeQuality" shape-rendering="geometricPrecision" text-rendering="geometricPrecision" version="1.0" viewBox="0 0 213 213" xml:space="preserve" xmlns="http://www.w3.org/2000/svg">
 <defs>
  <style type="text/css">
   <![CDATA[
    .fil2 {fill:none}
    .fil1 {fill:#727271}
    .fil0 {fill:#E31E24}
    .fil3 {fill:#FFED00;fill-rule:nonzero}
   ]]>
  </style>
    <clipPath id="d">
     <path d="m0 0h213v213h-213v-213z"/>
    </clipPath>
      <mask id="e">
  <linearGradient id="f" x1="88.079" x2="251.54" y1="46.26" y2="250.01" gradientUnits="userSpaceOnUse">
   <stop stop-color="#fff" offset="0"/>
   <stop stop-color="#fff" stop-opacity=".50196" offset=".25098"/>
   <stop stop-color="#fff" stop-opacity="0" offset="1"/>
  </linearGradient>
       <rect x="61" y="53" width="217" height="190" fill="url(#f)"/>
      </mask>
 </defs>
   <path class="fil0" d="m0 0h213v213h-213v-213z"/>
   <g clip-path="url(#d)">
     <path class="fil1" d="m61 79c15 45 30 89 42 117 11 28 18 40 48 44 29 5 82 4 107-13 24-17 21-50 18-84-44-28-88-56-133-85-13-3-25-7-39-3-14 3-28 14-43 24z" mask="url(#e)"/>
   </g>
   <path class="fil2" d="m0 0h213v213h-213v-213z"/>
   <path class="fil3" d="m117 138h-22v-6c0-7 1-13 3-17 3-5 7-10 14-16 8-6 12-10 13-11 2-3 3-6 3-10s-2-8-5-12c-4-3-9-5-16-5-6 0-11 2-15 6-4 3-7 8-9 16l-22-3c1-10 5-19 13-26 8-8 19-11 32-11 14 0 25 3 34 11 8 7 12 15 12 25 0 5-2 10-5 15s-9 12-19 20c-5 4-8 7-9 10-2 3-2 7-2 14zm-22 32v-24h22v24h-22z"/>
</svg>
