<?xml version="1.0" encoding="UTF-8"?>
<!DOCTYPE svg  PUBLIC '-//W3C//DTD SVG 1.0//EN'  'http://www.w3.org/TR/2001/REC-SVG-20010904/DTD/svg10.dtd'>
<svg width="20.04mm" height="20.04mm" clip-rule="evenodd" fill-rule="evenodd" image-rendering="optimizeQuality" shape-rendering="geometricPrecision" text-rendering="geometricPrecision" version="1.0" viewBox="0 0 217 217" xml:space="preserve" xmlns="http://www.w3.org/2000/svg">
 <defs>
  <style type="text/css">
   <![CDATA[
    .fil2 {fill:none}
    .fil1 {fill:#727271}
    .fil0 {fill:#EF7F1A}
    .fil3 {fill:#FFED00;fill-rule:nonzero}
   ]]>
  </style>
    <clipPath id="d">
     <path d="m0 0h217v217h-217v-217z"/>
    </clipPath>
      <mask id="e">
  <linearGradient id="f" x1="89.51" x2="255.63" y1="47.012" y2="254.07" gradientUnits="userSpaceOnUse">
   <stop stop-color="#fff" offset="0"/>
   <stop stop-color="#fff" stop-opacity=".50196" offset=".25098"/>
   <stop stop-color="#fff" stop-opacity="0" offset="1"/>
  </linearGradient>
       <rect x="62" y="54" width="221" height="193" fill="url(#f)"/>
      </mask>
 </defs>
   <path class="fil0" d="m0 0h217v217h-217v-217z"/>
   <g clip-path="url(#d)">
     <path class="fil1" d="m62 80c16 46 31 91 42 120 12 28 19 39 49 44s84 4 109-13c25-18 22-52 19-85l-135-87c-13-3-27-7-40-3-14 3-29 14-44 24z" mask="url(#e)"/>
   </g>
   <path class="fil2" d="m0 0h217v217h-217v-217z"/>
   <path class="fil3" d="m119 140h-23v-6c0-7 1-13 4-18 2-4 7-10 14-15 7-6 12-10 13-12 2-3 3-6 3-9 0-5-1-9-5-13-4-3-9-5-16-5-6 0-11 2-16 6-4 3-7 9-8 16l-23-3c1-10 5-19 14-27 8-7 19-10 32-10 14 0 26 3 34 11 8 7 12 16 12 25 0 6-1 11-4 16s-10 11-20 20c-5 4-8 7-10 10-1 3-1 7-1 14zm-23 33v-24h23v24h-23z"/>
</svg>
