<?xml version="1.0" encoding="UTF-8"?>
<!DOCTYPE svg  PUBLIC '-//W3C//DTD SVG 1.0//EN'  'http://www.w3.org/TR/2001/REC-SVG-20010904/DTD/svg10.dtd'>
<svg width="20.04mm" height="20.04mm" clip-rule="evenodd" fill-rule="evenodd" image-rendering="optimizeQuality" shape-rendering="geometricPrecision" text-rendering="geometricPrecision" version="1.0" viewBox="0 0 211 211" xml:space="preserve" xmlns="http://www.w3.org/2000/svg">
 <defs>
  <style type="text/css">
   <![CDATA[
    .fil2 {fill:none}
    .fil1 {fill:#727271}
    .fil0 {fill:#CB5499}
    .fil3 {fill:#FFED00;fill-rule:nonzero}
   ]]>
  </style>
    <clipPath id="d">
     <path d="m0 0h211v211h-211v-211z"/>
    </clipPath>
      <mask id="e">
  <linearGradient id="f" x1="87.132" x2="248.84" y1="45.763" y2="247.32" gradientUnits="userSpaceOnUse">
   <stop stop-color="#fff" offset="0"/>
   <stop stop-color="#fff" stop-opacity=".50196" offset=".25098"/>
   <stop stop-color="#fff" stop-opacity="0" offset="1"/>
  </linearGradient>
       <rect x="61" y="53" width="215" height="188" fill="url(#f)"/>
      </mask>
 </defs>
   <path class="fil0" d="m0 0h211v211h-211v-211z"/>
   <g clip-path="url(#d)">
     <path class="fil1" d="m61 78c15 44 29 89 40 116 11 28 18 39 48 44 29 5 81 4 106-14 24-17 21-49 18-82-43-28-87-56-131-84-13-4-26-7-39-4-14 4-28 14-42 24z" mask="url(#e)"/>
   </g>
   <path class="fil2" d="m0 0h211v211h-211v-211z"/>
   <path class="fil3" d="m116 136h-22v-5c0-7 1-13 3-18 3-4 7-9 14-15s11-9 13-11c2-3 3-6 3-9 0-5-2-9-6-12-3-4-8-5-15-5-6 0-11 1-15 5-4 3-7 9-9 16l-21-3c0-10 4-19 13-26 8-7 18-11 31-11 14 0 25 4 33 11s12 16 12 25c0 6-1 11-4 15-3 5-9 11-19 20-5 4-8 7-10 10-1 2-1 7-1 13zm-22 32v-23h22v23h-22z"/>
</svg>
